<svg version="1.1" id="Layer_1" xmlns="http://www.w3.org/2000/svg" xmlns:xlink="http://www.w3.org/1999/xlink" x="0px" y="0px"
	 width="100%" viewBox="0 0 1200 1200" enable-background="new 0 0 1200 1200" xml:space="preserve">
<path fill="#000000" opacity="1.000000" stroke="none" 
	d="
M679.000000,1201.000000 
	C452.666656,1201.000000 226.833328,1201.000000 1.000000,1201.000000 
	C1.000000,801.000000 1.000000,401.000000 1.000000,1.000000 
	C401.000000,1.000000 801.000000,1.000000 1201.000000,1.000000 
	C1201.000000,401.000000 1201.000000,801.000000 1201.000000,1201.000000 
	C1027.166626,1201.000000 853.333313,1201.000000 679.000000,1201.000000 
M640.555298,431.999969 
	C637.138916,432.332245 633.729431,432.818848 630.305054,432.970520 
	C614.152344,433.685944 598.808594,438.371765 583.605774,443.148041 
	C566.653931,448.473785 550.175720,455.294037 533.276245,460.804199 
	C522.926147,464.178925 512.141785,466.204071 501.622711,469.091461 
	C499.276672,469.735443 497.225586,471.453827 495.038696,472.677521 
	C496.472290,474.462555 497.630219,476.599304 499.384888,477.974792 
	C509.652222,486.023590 521.656677,484.162567 533.135559,482.742249 
	C543.815430,481.420746 543.851929,480.656616 545.971497,491.076721 
	C549.412292,507.992371 552.028320,525.103394 556.158508,541.844299 
	C561.488098,563.446838 572.191772,582.049866 590.250427,595.871887 
	C592.414612,597.528381 594.441406,599.333984 596.516479,596.955811 
	C597.644104,595.663513 597.982239,592.822937 597.436401,591.065918 
	C593.088928,577.072449 590.331543,562.941406 592.510681,547.613464 
	C593.686279,548.220642 595.059814,548.512695 595.773315,549.360291 
	C609.332092,565.468567 622.760254,581.687378 636.411987,597.715881 
	C637.486389,598.977356 640.629578,600.019043 641.694153,599.359558 
	C643.049805,598.519714 644.162231,595.665405 643.832703,593.982361 
	C641.079346,579.920349 637.338135,566.026184 635.139038,551.887939 
	C632.734314,536.428223 631.115845,520.793335 630.211487,505.173615 
	C629.704224,496.413391 630.781189,487.437500 632.223389,478.737610 
	C633.014526,473.964813 634.822876,467.908325 638.314026,465.327454 
	C646.431274,459.326599 656.429626,457.179749 666.658691,456.995941 
	C678.309387,456.786591 689.938171,456.460388 701.343506,459.817169 
	C702.814270,460.250000 705.587646,458.811035 706.567993,457.407959 
	C707.166321,456.551636 705.993225,453.454285 704.745422,452.491638 
	C700.297668,449.060425 695.660339,445.785522 690.763855,443.042114 
	C675.491394,434.485291 658.870850,431.566772 640.555298,431.999969 
M509.041168,642.457947 
	C510.819061,645.427917 512.596924,648.397888 514.890991,652.230103 
	C483.164093,652.230103 452.614136,652.230103 422.000000,652.230103 
	C422.000000,659.550964 421.766479,666.391418 422.083710,673.206238 
	C422.288391,677.603638 419.678314,679.737000 416.388519,680.723816 
	C411.272156,682.258667 406.172577,681.930908 402.253967,677.504517 
	C407.908844,674.268616 409.496185,669.092773 408.904114,663.298401 
	C408.393494,658.301147 405.616394,654.355103 400.572571,652.944031 
	C393.212555,650.884766 385.949951,651.458008 378.618042,654.810608 
	C379.589752,656.968506 380.437714,658.851562 381.480835,661.168030 
	C384.706573,660.541809 387.973206,659.774597 391.281860,659.300537 
	C395.037170,658.762573 398.434875,660.384766 399.658661,663.648499 
	C400.830597,666.774048 400.540802,670.650696 396.321686,672.205688 
	C392.927887,673.456421 389.449982,674.478882 386.194824,675.542114 
	C386.194824,677.750732 386.194824,679.704773 386.194824,681.588074 
	C389.085358,682.084106 391.798065,682.435486 394.456757,683.028809 
	C400.628052,684.406128 403.364563,689.094910 402.023102,695.452087 
	C401.159546,699.544617 397.179443,703.372498 390.199707,702.021606 
	C384.382324,700.895630 381.140594,696.749817 378.602386,692.027649 
	C376.344971,687.827820 374.628143,683.337463 372.678467,678.988159 
	C365.635376,681.870056 365.635376,681.870056 367.967072,688.801941 
	C373.087433,704.024231 381.643951,710.349609 396.642456,710.000000 
	C403.673035,709.836060 410.909119,702.436218 410.995392,695.300049 
	C411.024628,692.881714 411.000000,690.462708 411.000000,688.287598 
	C415.053650,687.969055 418.396393,687.706299 422.109772,687.414490 
	C422.109772,698.199585 422.109772,708.961853 422.109772,719.755615 
	C425.230377,719.755615 427.967529,719.755615 431.092255,719.755615 
	C431.092255,699.442383 431.092255,679.369507 431.092255,659.247192 
	C436.230713,659.247192 440.968964,659.247192 446.093140,659.247192 
	C446.093140,679.565979 446.093140,699.641418 446.093140,719.756958 
	C449.227905,719.756958 451.964996,719.756958 455.090179,719.756958 
	C455.090179,699.445312 455.090179,679.372742 455.090179,659.177002 
	C464.910980,659.177002 474.334503,659.177002 483.596252,659.177002 
	C484.641846,661.261475 485.890228,663.052368 486.460388,665.038025 
	C487.516266,668.715454 488.548370,672.472229 488.898621,676.259949 
	C489.275543,680.335938 486.605591,683.368469 483.000031,684.195862 
	C481.214142,684.605713 478.625244,682.500488 476.724243,681.094360 
	C475.359802,680.085022 474.533325,678.348389 473.492584,676.970337 
	C465.137115,680.623596 465.745575,679.985901 469.703430,687.170166 
	C472.565674,692.365601 475.375610,697.743164 479.158051,702.241333 
	C484.413330,708.491028 490.490204,714.062073 496.345978,719.790100 
	C499.846680,723.214539 501.086090,718.934326 502.943634,717.441284 
	C505.488861,715.395569 503.178345,714.564636 501.797668,713.155273 
	C495.625092,706.854431 489.654266,700.355957 483.373444,693.676636 
	C499.437683,686.815247 501.387207,680.169556 494.165863,659.294678 
	C501.416107,659.294678 508.607697,659.294678 516.185669,659.294678 
	C516.185669,679.663574 516.185669,699.740356 516.185669,719.707336 
	C519.324707,719.707336 522.062622,719.707336 525.182617,719.707336 
	C525.182617,699.346375 525.182617,679.275269 525.182617,659.293335 
	C532.324768,659.293335 539.063660,659.293335 545.885742,659.293335 
	C545.885742,666.215393 545.885742,672.843933 545.885742,679.458496 
	C544.122070,679.987549 542.449768,680.947754 540.813049,680.890747 
	C536.558777,680.742493 536.786804,683.500854 537.033569,686.216614 
	C537.380798,690.038330 545.134705,698.950012 548.762329,699.911987 
	C553.267029,701.106628 554.980713,699.851807 554.991089,695.218079 
	C555.017883,683.268982 555.000000,671.319763 555.000000,659.000549 
	C559.864319,659.000549 564.330322,658.854980 568.775696,659.093018 
	C570.040466,659.160645 571.760803,660.027832 572.397095,661.065186 
	C577.924438,670.076965 576.480713,678.193604 565.207153,680.521973 
	C564.134949,699.559326 578.354431,707.639709 602.123962,701.075195 
	C602.123962,707.429504 602.123962,713.662903 602.123962,719.678833 
	C605.374695,719.678833 608.115112,719.678833 611.230225,719.678833 
	C611.230225,699.284485 611.230225,679.209106 611.230225,658.761963 
	C614.712952,658.761963 617.801514,658.761963 620.683716,658.761963 
	C620.683716,656.298584 620.683716,654.234924 620.683716,652.000000 
	C590.558411,652.000000 560.748413,651.892822 530.940491,652.099304 
	C525.609680,652.136230 521.683411,651.846436 519.726318,645.690613 
	C518.453735,641.687988 515.715332,637.876892 512.811035,634.742188 
	C509.688873,631.372314 505.992218,627.692993 501.835449,626.351929 
	C497.365143,624.909668 492.069305,626.026123 487.301117,626.026123 
	C487.301117,628.671387 487.301117,630.745605 487.301117,633.254517 
	C496.417297,631.724304 503.833984,633.993164 509.041168,642.457947 
M696.000000,683.500000 
	C696.000000,675.400818 696.000000,667.301697 696.000000,659.291626 
	C701.319336,659.291626 706.058472,659.291626 711.182312,659.291626 
	C711.182312,679.659485 711.182312,699.738525 711.182312,719.706787 
	C714.325256,719.706787 717.063416,719.706787 720.186401,719.706787 
	C720.186401,699.342529 720.186401,679.268677 720.186401,659.298157 
	C725.332214,659.298157 730.071472,659.298157 735.000000,659.298157 
	C735.000000,668.241882 734.779785,676.895691 735.058838,685.533264 
	C735.367859,695.095825 741.278564,704.346069 752.709961,702.998962 
	C757.463928,702.438721 762.216553,701.867126 767.233154,701.269348 
	C767.233154,706.950989 767.233154,713.385193 767.233154,719.708130 
	C770.320007,719.708130 773.059387,719.708130 776.184326,719.708130 
	C776.184326,699.345825 776.184326,679.272461 776.184326,659.295776 
	C792.326538,659.295776 808.064880,659.295776 823.700562,659.295776 
	C823.700562,665.668884 823.700562,671.740967 823.700562,678.000061 
	C813.088501,678.000061 802.772583,678.127625 792.462891,677.930481 
	C788.879822,677.862000 787.898987,679.163452 787.930664,682.583130 
	C788.009399,691.075806 794.228394,696.678406 803.119751,695.517334 
	C803.553345,691.782288 803.996094,687.967896 804.420654,684.310547 
	C811.026672,684.310547 817.434021,684.310547 824.220703,684.310547 
	C824.220703,696.366760 824.220703,708.116028 824.220703,719.685791 
	C827.361389,719.685791 830.101807,719.685791 833.218811,719.685791 
	C833.218811,699.294617 833.218811,679.215393 833.218811,658.765808 
	C836.369263,658.765808 839.124756,658.765808 841.688293,658.765808 
	C841.688293,656.313354 841.688293,654.245422 841.688293,652.294312 
	C773.633179,652.294312 705.890198,652.294312 638.302002,652.294312 
	C638.302002,654.675354 638.302002,656.746338 638.302002,659.203003 
	C643.677063,659.203003 648.755188,659.203003 653.705444,659.203003 
	C653.705444,669.029785 653.705444,678.447510 653.705444,688.000549 
	C651.423706,688.000549 649.283752,687.548767 647.498291,688.149780 
	C646.175110,688.595154 644.229187,690.626282 644.420044,691.578430 
	C645.707581,698.002991 649.892456,702.618286 655.397461,705.723145 
	C659.659790,708.127319 662.905090,705.657593 662.994019,700.523010 
	C663.030334,698.426636 663.000000,696.329041 663.000000,694.281250 
	C670.963562,694.281250 678.370300,694.281250 686.165100,694.281250 
	C686.165100,702.972168 686.165100,711.387878 686.165100,719.714294 
	C689.642639,719.714294 692.717529,719.714294 696.000000,719.714294 
	C696.000000,707.786560 696.000000,696.143311 696.000000,683.500000 
M559.950928,412.594452 
	C561.295227,416.002441 562.265625,419.621521 564.049744,422.781189 
	C571.044312,435.168854 583.149597,440.986908 595.755005,433.938690 
	C613.378418,424.084717 621.908936,408.687347 620.953796,388.404205 
	C620.496216,378.686859 614.965210,371.826416 605.535156,369.041443 
	C593.303589,365.429138 581.500122,367.619507 570.525452,373.326111 
	C563.361145,377.051453 558.164368,383.159485 558.103455,391.824127 
	C558.056335,398.522858 558.942871,405.228210 559.950928,412.594452 
z"/>
<path fill="#FFFFFF" opacity="1.000000" stroke="none" 
	d="
M641.046875,432.000000 
	C658.870850,431.566772 675.491394,434.485291 690.763855,443.042114 
	C695.660339,445.785522 700.297668,449.060425 704.745422,452.491638 
	C705.993225,453.454285 707.166321,456.551636 706.567993,457.407959 
	C705.587646,458.811035 702.814270,460.250000 701.343506,459.817169 
	C689.938171,456.460388 678.309387,456.786591 666.658691,456.995941 
	C656.429626,457.179749 646.431274,459.326599 638.314026,465.327454 
	C634.822876,467.908325 633.014526,473.964813 632.223389,478.737610 
	C630.781189,487.437500 629.704224,496.413391 630.211487,505.173615 
	C631.115845,520.793335 632.734314,536.428223 635.139038,551.887939 
	C637.338135,566.026184 641.079346,579.920349 643.832703,593.982361 
	C644.162231,595.665405 643.049805,598.519714 641.694153,599.359558 
	C640.629578,600.019043 637.486389,598.977356 636.411987,597.715881 
	C622.760254,581.687378 609.332092,565.468567 595.773315,549.360291 
	C595.059814,548.512695 593.686279,548.220642 592.510681,547.613464 
	C590.331543,562.941406 593.088928,577.072449 597.436401,591.065918 
	C597.982239,592.822937 597.644104,595.663513 596.516479,596.955811 
	C594.441406,599.333984 592.414612,597.528381 590.250427,595.871887 
	C572.191772,582.049866 561.488098,563.446838 556.158508,541.844299 
	C552.028320,525.103394 549.412292,507.992371 545.971497,491.076721 
	C543.851929,480.656616 543.815430,481.420746 533.135559,482.742249 
	C521.656677,484.162567 509.652222,486.023590 499.384888,477.974792 
	C497.630219,476.599304 496.472290,474.462555 495.038696,472.677521 
	C497.225586,471.453827 499.276672,469.735443 501.622711,469.091461 
	C512.141785,466.204071 522.926147,464.178925 533.276245,460.804199 
	C550.175720,455.294037 566.653931,448.473785 583.605774,443.148041 
	C598.808594,438.371765 614.152344,433.685944 630.305054,432.970520 
	C633.729431,432.818848 637.138916,432.332245 641.046875,432.000000 
z"/>
<path fill="#FFFFFF" opacity="1.000000" stroke="none" 
	d="
M509.008179,642.088989 
	C503.833984,633.993164 496.417297,631.724304 487.301117,633.254517 
	C487.301117,630.745605 487.301117,628.671387 487.301117,626.026123 
	C492.069305,626.026123 497.365143,624.909668 501.835449,626.351929 
	C505.992218,627.692993 509.688873,631.372314 512.811035,634.742188 
	C515.715332,637.876892 518.453735,641.687988 519.726318,645.690613 
	C521.683411,651.846436 525.609680,652.136230 530.940491,652.099304 
	C560.748413,651.892822 590.558411,652.000000 620.683716,652.000000 
	C620.683716,654.234924 620.683716,656.298584 620.683716,658.761963 
	C617.801514,658.761963 614.712952,658.761963 611.230225,658.761963 
	C611.230225,679.209106 611.230225,699.284485 611.230225,719.678833 
	C608.115112,719.678833 605.374695,719.678833 602.123962,719.678833 
	C602.123962,713.662903 602.123962,707.429504 602.123962,701.075195 
	C578.354431,707.639709 564.134949,699.559326 565.207153,680.521973 
	C576.480713,678.193604 577.924438,670.076965 572.397095,661.065186 
	C571.760803,660.027832 570.040466,659.160645 568.775696,659.093018 
	C564.330322,658.854980 559.864319,659.000549 555.000000,659.000549 
	C555.000000,671.319763 555.017883,683.268982 554.991089,695.218079 
	C554.980713,699.851807 553.267029,701.106628 548.762329,699.911987 
	C545.134705,698.950012 537.380798,690.038330 537.033569,686.216614 
	C536.786804,683.500854 536.558777,680.742493 540.813049,680.890747 
	C542.449768,680.947754 544.122070,679.987549 545.885742,679.458496 
	C545.885742,672.843933 545.885742,666.215393 545.885742,659.293335 
	C539.063660,659.293335 532.324768,659.293335 525.182617,659.293335 
	C525.182617,679.275269 525.182617,699.346375 525.182617,719.707336 
	C522.062622,719.707336 519.324707,719.707336 516.185669,719.707336 
	C516.185669,699.740356 516.185669,679.663574 516.185669,659.294678 
	C508.607697,659.294678 501.416107,659.294678 494.165863,659.294678 
	C501.387207,680.169556 499.437683,686.815247 483.373444,693.676636 
	C489.654266,700.355957 495.625092,706.854431 501.797668,713.155273 
	C503.178345,714.564636 505.488861,715.395569 502.943634,717.441284 
	C501.086090,718.934326 499.846680,723.214539 496.345978,719.790100 
	C490.490204,714.062073 484.413330,708.491028 479.158051,702.241333 
	C475.375610,697.743164 472.565674,692.365601 469.703430,687.170166 
	C465.745575,679.985901 465.137115,680.623596 473.492584,676.970337 
	C474.533325,678.348389 475.359802,680.085022 476.724243,681.094360 
	C478.625244,682.500488 481.214142,684.605713 483.000031,684.195862 
	C486.605591,683.368469 489.275543,680.335938 488.898621,676.259949 
	C488.548370,672.472229 487.516266,668.715454 486.460388,665.038025 
	C485.890228,663.052368 484.641846,661.261475 483.596252,659.177002 
	C474.334503,659.177002 464.910980,659.177002 455.090179,659.177002 
	C455.090179,679.372742 455.090179,699.445312 455.090179,719.756958 
	C451.964996,719.756958 449.227905,719.756958 446.093140,719.756958 
	C446.093140,699.641418 446.093140,679.565979 446.093140,659.247192 
	C440.968964,659.247192 436.230713,659.247192 431.092255,659.247192 
	C431.092255,679.369507 431.092255,699.442383 431.092255,719.755615 
	C427.967529,719.755615 425.230377,719.755615 422.109772,719.755615 
	C422.109772,708.961853 422.109772,698.199585 422.109772,687.414490 
	C418.396393,687.706299 415.053650,687.969055 411.000000,688.287598 
	C411.000000,690.462708 411.024628,692.881714 410.995392,695.300049 
	C410.909119,702.436218 403.673035,709.836060 396.642456,710.000000 
	C381.643951,710.349609 373.087433,704.024231 367.967072,688.801941 
	C365.635376,681.870056 365.635376,681.870056 372.678467,678.988159 
	C374.628143,683.337463 376.344971,687.827820 378.602386,692.027649 
	C381.140594,696.749817 384.382324,700.895630 390.199707,702.021606 
	C397.179443,703.372498 401.159546,699.544617 402.023102,695.452087 
	C403.364563,689.094910 400.628052,684.406128 394.456757,683.028809 
	C391.798065,682.435486 389.085358,682.084106 386.194824,681.588074 
	C386.194824,679.704773 386.194824,677.750732 386.194824,675.542114 
	C389.449982,674.478882 392.927887,673.456421 396.321686,672.205688 
	C400.540802,670.650696 400.830597,666.774048 399.658661,663.648499 
	C398.434875,660.384766 395.037170,658.762573 391.281860,659.300537 
	C387.973206,659.774597 384.706573,660.541809 381.480835,661.168030 
	C380.437714,658.851562 379.589752,656.968506 378.618042,654.810608 
	C385.949951,651.458008 393.212555,650.884766 400.572571,652.944031 
	C405.616394,654.355103 408.393494,658.301147 408.904114,663.298401 
	C409.496185,669.092773 407.908844,674.268616 402.253967,677.504517 
	C406.172577,681.930908 411.272156,682.258667 416.388519,680.723816 
	C419.678314,679.737000 422.288391,677.603638 422.083710,673.206238 
	C421.766479,666.391418 422.000000,659.550964 422.000000,652.230103 
	C452.614136,652.230103 483.164093,652.230103 514.890991,652.230103 
	C512.596924,648.397888 510.819061,645.427917 509.008179,642.088989 
M586.765503,659.000000 
	C584.997437,659.000000 583.229431,659.000000 581.349121,659.000000 
	C581.675964,660.069702 581.852722,660.865051 582.156189,661.608704 
	C586.269714,671.688965 584.944458,677.761780 576.683716,684.720276 
	C574.169067,686.838501 574.965393,688.889099 576.337952,690.680237 
	C580.728943,696.410156 585.530884,698.003723 592.946350,695.369446 
	C596.623413,694.063232 601.733459,692.988586 601.910950,687.685181 
	C602.226624,678.250854 601.999634,668.798462 601.999634,659.000000 
	C596.950684,659.000000 592.325500,659.000000 586.765503,659.000000 
z"/>
<path fill="#FFFFFF" opacity="1.000000" stroke="none" 
	d="
M696.000000,684.000000 
	C696.000000,696.143311 696.000000,707.786560 696.000000,719.714294 
	C692.717529,719.714294 689.642639,719.714294 686.165100,719.714294 
	C686.165100,711.387878 686.165100,702.972168 686.165100,694.281250 
	C678.370300,694.281250 670.963562,694.281250 663.000000,694.281250 
	C663.000000,696.329041 663.030334,698.426636 662.994019,700.523010 
	C662.905090,705.657593 659.659790,708.127319 655.397461,705.723145 
	C649.892456,702.618286 645.707581,698.002991 644.420044,691.578430 
	C644.229187,690.626282 646.175110,688.595154 647.498291,688.149780 
	C649.283752,687.548767 651.423706,688.000549 653.705444,688.000549 
	C653.705444,678.447510 653.705444,669.029785 653.705444,659.203003 
	C648.755188,659.203003 643.677063,659.203003 638.302002,659.203003 
	C638.302002,656.746338 638.302002,654.675354 638.302002,652.294312 
	C705.890198,652.294312 773.633179,652.294312 841.688293,652.294312 
	C841.688293,654.245422 841.688293,656.313354 841.688293,658.765808 
	C839.124756,658.765808 836.369263,658.765808 833.218811,658.765808 
	C833.218811,679.215393 833.218811,699.294617 833.218811,719.685791 
	C830.101807,719.685791 827.361389,719.685791 824.220703,719.685791 
	C824.220703,708.116028 824.220703,696.366760 824.220703,684.310547 
	C817.434021,684.310547 811.026672,684.310547 804.420654,684.310547 
	C803.996094,687.967896 803.553345,691.782288 803.119751,695.517334 
	C794.228394,696.678406 788.009399,691.075806 787.930664,682.583130 
	C787.898987,679.163452 788.879822,677.862000 792.462891,677.930481 
	C802.772583,678.127625 813.088501,678.000061 823.700562,678.000061 
	C823.700562,671.740967 823.700562,665.668884 823.700562,659.295776 
	C808.064880,659.295776 792.326538,659.295776 776.184326,659.295776 
	C776.184326,679.272461 776.184326,699.345825 776.184326,719.708130 
	C773.059387,719.708130 770.320007,719.708130 767.233154,719.708130 
	C767.233154,713.385193 767.233154,706.950989 767.233154,701.269348 
	C762.216553,701.867126 757.463928,702.438721 752.709961,702.998962 
	C741.278564,704.346069 735.367859,695.095825 735.058838,685.533264 
	C734.779785,676.895691 735.000000,668.241882 735.000000,659.298157 
	C730.071472,659.298157 725.332214,659.298157 720.186401,659.298157 
	C720.186401,679.268677 720.186401,699.342529 720.186401,719.706787 
	C717.063416,719.706787 714.325256,719.706787 711.182312,719.706787 
	C711.182312,699.738525 711.182312,679.659485 711.182312,659.291626 
	C706.058472,659.291626 701.319336,659.291626 696.000000,659.291626 
	C696.000000,667.301697 696.000000,675.400818 696.000000,684.000000 
M758.460266,659.000000 
	C753.700317,659.000000 748.940369,659.000000 744.000000,659.000000 
	C744.000000,667.908020 744.106750,676.219299 743.972839,684.526672 
	C743.806458,694.844238 751.934204,697.850464 760.088928,693.850098 
	C762.790039,692.524963 766.491028,689.761108 766.681885,687.407410 
	C767.441162,678.047607 766.994446,668.589966 766.994446,659.000000 
	C764.073120,659.000000 761.757996,659.000000 758.460266,659.000000 
M665.677490,659.000244 
	C664.785522,659.778015 663.134705,660.539734 663.117920,661.335938 
	C662.932678,670.110840 663.001526,678.891113 663.001526,687.769531 
	C670.861755,687.769531 678.265869,687.769531 685.767395,687.769531 
	C685.767395,678.133850 685.767395,668.730225 685.767395,659.000000 
	C679.243774,659.000000 672.947510,659.000000 665.677490,659.000244 
z"/>
<path fill="#FFFFFF" opacity="1.000000" stroke="none" 
	d="
M559.682617,412.262512 
	C558.942871,405.228210 558.056335,398.522858 558.103455,391.824127 
	C558.164368,383.159485 563.361145,377.051453 570.525452,373.326111 
	C581.500122,367.619507 593.303589,365.429138 605.535156,369.041443 
	C614.965210,371.826416 620.496216,378.686859 620.953796,388.404205 
	C621.908936,408.687347 613.378418,424.084717 595.755005,433.938690 
	C583.149597,440.986908 571.044312,435.168854 564.049744,422.781189 
	C562.265625,419.621521 561.295227,416.002441 559.682617,412.262512 
z"/>
<path fill="#000000" opacity="1.000000" stroke="none" 
	d="
M587.232910,659.000000 
	C592.325500,659.000000 596.950684,659.000000 601.999634,659.000000 
	C601.999634,668.798462 602.226624,678.250854 601.910950,687.685181 
	C601.733459,692.988586 596.623413,694.063232 592.946350,695.369446 
	C585.530884,698.003723 580.728943,696.410156 576.337952,690.680237 
	C574.965393,688.889099 574.169067,686.838501 576.683716,684.720276 
	C584.944458,677.761780 586.269714,671.688965 582.156189,661.608704 
	C581.852722,660.865051 581.675964,660.069702 581.349121,659.000000 
	C583.229431,659.000000 584.997437,659.000000 587.232910,659.000000 
z"/>
<path fill="#000000" opacity="1.000000" stroke="none" 
	d="
M758.951538,659.000000 
	C761.757996,659.000000 764.073120,659.000000 766.994446,659.000000 
	C766.994446,668.589966 767.441162,678.047607 766.681885,687.407410 
	C766.491028,689.761108 762.790039,692.524963 760.088928,693.850098 
	C751.934204,697.850464 743.806458,694.844238 743.972839,684.526672 
	C744.106750,676.219299 744.000000,667.908020 744.000000,659.000000 
	C748.940369,659.000000 753.700317,659.000000 758.951538,659.000000 
z"/>
<path fill="#000000" opacity="1.000000" stroke="none" 
	d="
M666.164429,659.000122 
	C672.947510,659.000000 679.243774,659.000000 685.767395,659.000000 
	C685.767395,668.730225 685.767395,678.133850 685.767395,687.769531 
	C678.265869,687.769531 670.861755,687.769531 663.001526,687.769531 
	C663.001526,678.891113 662.932678,670.110840 663.117920,661.335938 
	C663.134705,660.539734 664.785522,659.778015 666.164429,659.000122 
z"/>
</svg>