<?xml version="1.0" standalone="no"?>
<!DOCTYPE svg PUBLIC "-//W3C//DTD SVG 20010904//EN"
 "http://www.w3.org/TR/2001/REC-SVG-20010904/DTD/svg10.dtd">
<svg version="1.0" xmlns="http://www.w3.org/2000/svg"
 width="1200.000000pt" height="1200.000000pt" viewBox="0 0 1200.000000 1200.000000"
 preserveAspectRatio="xMidYMid meet">

<g transform="translate(0.000000,1200.000000) scale(0.100000,-0.100000)"
fill="#000000" stroke="none">
<path d="M5810 8314 c-168 -45 -240 -130 -240 -283 1 -160 74 -306 182 -362
123 -63 306 37 394 217 33 66 38 87 42 162 6 116 -9 166 -62 217 -66 64 -190
83 -316 49z"/>
<path d="M6345 7684 c-220 -22 -436 -77 -782 -200 -301 -107 -469 -160 -542
-170 -93 -12 -95 -52 -6 -98 56 -29 67 -31 170 -31 61 0 140 4 176 9 l67 8 11
-33 c6 -19 26 -124 46 -234 56 -323 101 -471 185 -619 99 -173 272 -325 296
-261 3 8 -3 43 -15 77 -46 142 -58 256 -43 387 l7 53 52 -73 c55 -79 401 -480
418 -486 6 -2 19 3 29 10 17 13 17 16 -2 88 -31 109 -78 345 -99 494 -13 94
-18 190 -18 345 0 227 11 322 46 379 25 41 105 80 214 102 111 23 213 24 356
3 60 -9 116 -13 124 -10 51 19 -41 107 -184 173 -140 66 -353 102 -506 87z"/>
<path d="M4870 5715 l0 -35 60 0 c93 0 125 -23 193 -142 l28 -48 -466 0 -465
0 0 -129 c0 -129 0 -129 -27 -146 -49 -33 -135 -32 -177 0 -19 15 -19 16 13
49 97 100 12 239 -136 222 -46 -5 -85 -17 -101 -31 -2 -2 1 -13 8 -24 10 -19
17 -21 80 -15 56 6 74 4 95 -10 27 -18 34 -61 14 -98 -12 -23 -66 -48 -104
-48 -22 0 -25 -4 -25 -35 0 -35 1 -35 43 -35 83 0 136 -61 116 -135 -25 -89
-143 -102 -216 -23 -23 24 -83 144 -83 166 0 15 -3 15 -35 0 -21 -10 -25 -16
-20 -37 13 -55 61 -138 104 -181 72 -71 152 -88 231 -47 61 31 83 65 88 137 4
59 5 60 34 60 16 0 44 7 63 14 l35 15 0 -175 0 -174 35 0 35 0 0 305 0 305 85
0 85 0 0 -305 0 -305 35 0 35 0 0 305 0 305 153 0 154 0 26 -54 c30 -62 35
-122 12 -165 -31 -61 -104 -54 -142 13 -8 15 -13 15 -36 5 -15 -7 -27 -18 -27
-24 0 -21 97 -174 156 -246 31 -38 78 -87 104 -109 l48 -40 21 26 21 27 -68
66 c-66 63 -132 145 -132 163 0 4 8 8 18 8 28 0 81 37 102 72 26 44 26 131 0
200 -11 29 -20 54 -20 56 0 1 54 2 120 2 l120 0 0 -305 0 -305 35 0 35 0 0
305 0 305 115 0 115 0 0 -110 0 -110 -29 0 c-44 0 -61 -10 -61 -34 0 -33 56
-112 96 -137 60 -37 64 -26 64 197 l0 194 93 0 c92 0 94 0 107 -27 42 -90 27
-154 -41 -181 -40 -15 -41 -17 -35 -55 9 -53 39 -109 75 -140 72 -61 165 -60
284 1 4 2 7 -44 7 -102 l0 -106 35 0 35 0 0 305 0 305 50 0 50 0 0 35 0 35
-489 0 -489 0 -42 73 c-91 154 -133 187 -240 187 l-60 0 0 -35z m1150 -448 c0
-147 -1 -154 -23 -175 -75 -71 -206 -67 -250 7 -23 40 -21 55 8 71 60 32 84
135 51 215 l-15 35 115 0 114 0 0 -153z"/>
<path d="M6380 5455 l0 -35 80 0 80 0 0 -145 0 -145 -39 0 c-52 0 -66 -18 -48
-62 17 -40 71 -96 105 -109 36 -14 52 5 52 62 l0 49 125 0 125 0 0 -130 0
-130 40 0 40 0 0 305 0 305 85 0 85 0 0 -305 0 -305 35 0 35 0 0 305 0 305 84
0 84 0 4 -162 c4 -190 13 -217 88 -256 37 -19 56 -23 103 -19 32 3 72 14 92
26 l35 20 0 -109 0 -110 35 0 35 0 0 305 0 305 250 0 250 0 0 -95 0 -95 -164
0 c-90 0 -171 -3 -180 -6 -42 -16 1 -129 61 -161 34 -18 35 -18 49 1 8 11 14
39 14 63 l0 43 110 0 110 0 0 -180 0 -180 35 0 35 0 0 305 0 305 45 0 c45 0
45 0 45 35 l0 35 -1010 0 -1010 0 0 -35z m480 -180 l0 -145 -125 0 -125 0 0
145 0 145 125 0 125 0 0 -145z m808 -6 l-3 -152 -37 -30 c-54 -43 -132 -50
-174 -14 l-29 25 -3 161 -3 161 126 0 126 0 -3 -151z"/>
</g>
</svg>
